<svg width="20" height="20" viewBox="0 0 20 20" fill="none" xmlns="http://www.w3.org/2000/svg">
<path d="M16.5 2.5C16.898 2.5 17.2793 2.65824 17.5605 2.93945C17.8418 3.22066 18 3.60204 18 4V6.25C18 6.64796 17.8418 7.02934 17.5605 7.31055C17.2793 7.59176 16.898 7.75 16.5 7.75C16.102 7.75 15.7207 7.59176 15.4395 7.31055C15.1582 7.02934 15 6.64796 15 6.25V5.875C15 5.78802 14.9696 5.70435 14.915 5.6377H14.9141L14.8896 5.60938L14.8623 5.58496L14.8096 5.54883C14.7537 5.51725 14.6903 5.5 14.625 5.5H12.375C12.288 5.5 12.2044 5.53042 12.1377 5.58496L12.1094 5.60938C12.039 5.6798 12 5.77568 12 5.875V12.625C12 12.7243 12.0399 12.8192 12.1104 12.8896C12.1808 12.9601 12.2757 13 12.375 13H12.75C13.148 13 13.5293 13.1582 13.8105 13.4395C14.0918 13.7207 14.25 14.102 14.25 14.5C14.25 14.898 14.0918 15.2793 13.8105 15.5605C13.5293 15.8418 13.148 16 12.75 16H8.25C7.85204 16 7.47066 15.8418 7.18945 15.5605C6.90825 15.2793 6.75 14.898 6.75 14.5C6.75 14.102 6.90825 13.7207 7.18945 13.4395C7.47066 13.1582 7.85204 13 8.25 13H8.625C8.72432 13 8.81922 12.9601 8.88965 12.8896C8.96007 12.8192 9 12.7243 9 12.625V5.875C9 5.78802 8.96958 5.70435 8.91504 5.6377H8.91406L8.88965 5.60938L8.8623 5.58496L8.80957 5.54883C8.75374 5.51725 8.69031 5.5 8.625 5.5H6.375C6.28802 5.5 6.20435 5.53042 6.1377 5.58496L6.10938 5.60938C6.03895 5.6798 6 5.77568 6 5.875V6.25C6 6.64796 5.84175 7.02934 5.56055 7.31055C5.27934 7.59175 4.89796 7.75 4.5 7.75C4.10204 7.75 3.72066 7.59175 3.43945 7.31055C3.15825 7.02934 3 6.64796 3 6.25V4C3 3.60204 3.15825 3.22066 3.43945 2.93945C3.72066 2.65825 4.10204 2.5 4.5 2.5H16.5Z" fill="url(#paint0_linear_410_45)" stroke="#45403C" stroke-linecap="round" stroke-linejoin="round"/>
<defs>
<linearGradient id="paint0_linear_410_45" x1="10.5" y1="3" x2="10.5" y2="15.5" gradientUnits="userSpaceOnUse">
<stop stop-color="#F4F4F4"/>
<stop offset="1" stop-color="#DCDCDC"/>
</linearGradient>
</defs>
</svg>
