<svg width="27" height="27" viewBox="0 0 27 27" fill="none" xmlns="http://www.w3.org/2000/svg">
<g filter="url(#filter0_d_362_625)">
<rect width="15" height="15" rx="3" transform="matrix(0.998628 0.0523679 -0.0416989 0.99913 7.40039 4.61328)" fill="url(#paint0_linear_362_625)"/>
<rect x="0.478464" y="0.525749" width="14" height="14" rx="2.5" transform="matrix(0.998628 0.0523679 -0.0416989 0.99913 7.42297 4.58868)" stroke="#45403C"/>
</g>
<g filter="url(#filter1_dd_362_625)">
<path d="M4 15V4C4 2.89543 4.89543 2 6 2H11.4C15 2 19 6 19 11.875V15C19 16.1046 18.1046 17 17 17H6C4.89543 17 4 16.1046 4 15Z" fill="url(#paint1_radial_362_625)"/>
<path d="M6 2.5H11.4004C14.644 2.5003 18.5 6.18877 18.5 11.875V15C18.5 15.8284 17.8284 16.5 17 16.5H6C5.17157 16.5 4.5 15.8284 4.5 15V4C4.5 3.17157 5.17157 2.5 6 2.5Z" stroke="#45403C"/>
</g>
<path d="M4.99902 9H17.999V15C17.999 15.5523 17.5513 16 16.999 16H5.99902C5.44674 16 4.99902 15.5523 4.99902 15V9Z" fill="url(#paint2_linear_362_625)"/>
<defs>
<filter id="filter0_d_362_625" x="2.89746" y="2.76611" width="23.3604" height="23.4668" filterUnits="userSpaceOnUse" color-interpolation-filters="sRGB">
<feFlood flood-opacity="0" result="BackgroundImageFix"/>
<feColorMatrix in="SourceAlpha" type="matrix" values="0 0 0 0 0 0 0 0 0 0 0 0 0 0 0 0 0 0 127 0" result="hardAlpha"/>
<feOffset dy="2"/>
<feGaussianBlur stdDeviation="2"/>
<feComposite in2="hardAlpha" operator="out"/>
<feColorMatrix type="matrix" values="0 0 0 0 0.785325 0 0 0 0 0.785325 0 0 0 0 0.785325 0 0 0 0.32 0"/>
<feBlend mode="normal" in2="BackgroundImageFix" result="effect1_dropShadow_362_625"/>
<feBlend mode="normal" in="SourceGraphic" in2="effect1_dropShadow_362_625" result="shape"/>
</filter>
<filter id="filter1_dd_362_625" x="0" y="0" width="23" height="23" filterUnits="userSpaceOnUse" color-interpolation-filters="sRGB">
<feFlood flood-opacity="0" result="BackgroundImageFix"/>
<feColorMatrix in="SourceAlpha" type="matrix" values="0 0 0 0 0 0 0 0 0 0 0 0 0 0 0 0 0 0 127 0" result="hardAlpha"/>
<feOffset dy="2"/>
<feGaussianBlur stdDeviation="2"/>
<feComposite in2="hardAlpha" operator="out"/>
<feColorMatrix type="matrix" values="0 0 0 0 0.785325 0 0 0 0 0.785325 0 0 0 0 0.785325 0 0 0 0.32 0"/>
<feBlend mode="normal" in2="BackgroundImageFix" result="effect1_dropShadow_362_625"/>
<feColorMatrix in="SourceAlpha" type="matrix" values="0 0 0 0 0 0 0 0 0 0 0 0 0 0 0 0 0 0 127 0" result="hardAlpha"/>
<feOffset dx="0.5" dy="0.5"/>
<feGaussianBlur stdDeviation="0.25"/>
<feComposite in2="hardAlpha" operator="out"/>
<feColorMatrix type="matrix" values="0 0 0 0 0 0 0 0 0 0 0 0 0 0 0 0 0 0 0.2 0"/>
<feBlend mode="normal" in2="effect1_dropShadow_362_625" result="effect2_dropShadow_362_625"/>
<feBlend mode="normal" in="SourceGraphic" in2="effect2_dropShadow_362_625" result="shape"/>
</filter>
<linearGradient id="paint0_linear_362_625" x1="7.5" y1="0" x2="7.5" y2="15" gradientUnits="userSpaceOnUse">
<stop stop-color="#F4F4F4"/>
<stop offset="1" stop-color="#DCDCDC"/>
</linearGradient>
<radialGradient id="paint1_radial_362_625" cx="0" cy="0" r="1" gradientTransform="matrix(-4.59752 3.97059 -3.97059 -5.12255 16.3297 4.20588)" gradientUnits="userSpaceOnUse">
<stop stop-color="#F8F8F8"/>
<stop offset="0.0001" stop-color="#DADADA"/>
<stop offset="1" stop-color="#F8F8F8"/>
</radialGradient>
<linearGradient id="paint2_linear_362_625" x1="11.499" y1="9" x2="11.499" y2="16" gradientUnits="userSpaceOnUse">
<stop stop-color="#F4F4F4" stop-opacity="0"/>
<stop offset="1" stop-color="#DCDCDC"/>
</linearGradient>
</defs>
</svg>
