<svg width="24" height="23" viewBox="0 0 24 23" fill="none" xmlns="http://www.w3.org/2000/svg">
<g filter="url(#filter0_d_362_649)">
<g filter="url(#filter1_d_362_649)">
<path d="M17 6.25C17 6.51522 17.1054 6.76949 17.293 6.95703C17.4805 7.14457 17.7348 7.25 18 7.25C18.2652 7.25 18.5195 7.14457 18.707 6.95703C18.8946 6.76949 19 6.51522 19 6.25V4C19 3.73478 18.8946 3.48051 18.707 3.29297C18.5195 3.10543 18.2652 3 18 3H6C5.73478 3 5.48051 3.10543 5.29297 3.29297C5.10543 3.48051 5 3.73478 5 4V6.25C5 6.51522 5.10543 6.76949 5.29297 6.95703C5.48051 7.14457 5.73478 7.25 6 7.25C6.26522 7.25 6.51949 7.14457 6.70703 6.95703C6.89457 6.7695 7 6.51522 7 6.25V5.875C7 5.64293 7.09225 5.42044 7.25635 5.25635L7.32031 5.19824C7.47604 5.0706 7.67189 5 7.875 5H10.125C10.3281 5 10.524 5.0706 10.6797 5.19824L10.7437 5.25635L10.8018 5.32031C10.9294 5.47604 11 5.67189 11 5.875V12.625C11 12.8571 10.9077 13.0796 10.7437 13.2437C10.5796 13.4077 10.3571 13.5 10.125 13.5H9.75C9.48478 13.5 9.23051 13.6054 9.04297 13.793C8.85543 13.9805 8.75 14.2348 8.75 14.5C8.75 14.7652 8.85543 15.0195 9.04297 15.207C9.23051 15.3946 9.48478 15.5 9.75 15.5H14.25C14.5152 15.5 14.7695 15.3946 14.957 15.207C15.1446 15.0195 15.25 14.7652 15.25 14.5C15.25 14.2348 15.1446 13.9805 14.957 13.793C14.7695 13.6054 14.5152 13.5 14.25 13.5H13.875C13.6429 13.5 13.4204 13.4077 13.2563 13.2437C13.0923 13.0796 13 12.8571 13 12.625V5.875C13 5.64294 13.0923 5.42044 13.2563 5.25635L13.3203 5.19824C13.476 5.0706 13.6719 5 13.875 5H16.125C16.3281 5 16.524 5.0706 16.6797 5.19824L16.7437 5.25635L16.8018 5.32031C16.9294 5.47604 17 5.67189 17 5.875V6.25Z" fill="url(#paint0_linear_362_649)"/>
<path d="M18 2.5C18.398 2.5 18.7793 2.65824 19.0605 2.93945C19.3418 3.22066 19.5 3.60204 19.5 4V6.25C19.5 6.64796 19.3418 7.02934 19.0605 7.31055C18.7793 7.59176 18.398 7.75 18 7.75C17.602 7.75 17.2207 7.59176 16.9395 7.31055C16.6582 7.02934 16.5 6.64796 16.5 6.25V5.875C16.5 5.78802 16.4696 5.70435 16.415 5.6377H16.4141L16.3896 5.60938L16.3623 5.58496L16.3096 5.54883C16.2537 5.51725 16.1903 5.5 16.125 5.5H13.875C13.788 5.5 13.7044 5.53042 13.6377 5.58496L13.6094 5.60938C13.539 5.6798 13.5 5.77568 13.5 5.875V12.625C13.5 12.7243 13.5399 12.8192 13.6104 12.8896C13.6808 12.9601 13.7757 13 13.875 13H14.25C14.648 13 15.0293 13.1582 15.3105 13.4395C15.5918 13.7207 15.75 14.102 15.75 14.5C15.75 14.898 15.5918 15.2793 15.3105 15.5605C15.0293 15.8418 14.648 16 14.25 16H9.75C9.35204 16 8.97066 15.8418 8.68945 15.5605C8.40825 15.2793 8.25 14.898 8.25 14.5C8.25 14.102 8.40825 13.7207 8.68945 13.4395C8.97066 13.1582 9.35204 13 9.75 13H10.125C10.2243 13 10.3192 12.9601 10.3896 12.8896C10.4601 12.8192 10.5 12.7243 10.5 12.625V5.875C10.5 5.78802 10.4696 5.70435 10.415 5.6377H10.4141L10.3896 5.60938L10.3623 5.58496L10.3096 5.54883C10.2537 5.51725 10.1903 5.5 10.125 5.5H7.875C7.78802 5.5 7.70435 5.53042 7.6377 5.58496L7.60938 5.60938C7.53895 5.6798 7.5 5.77568 7.5 5.875V6.25C7.5 6.64796 7.34175 7.02934 7.06055 7.31055C6.77934 7.59175 6.39796 7.75 6 7.75C5.60204 7.75 5.22066 7.59175 4.93945 7.31055C4.65825 7.02934 4.5 6.64796 4.5 6.25V4C4.5 3.60204 4.65825 3.22066 4.93945 2.93945C5.22066 2.65825 5.60204 2.5 6 2.5H18Z" stroke="#45403C" stroke-linecap="round" stroke-linejoin="round"/>
</g>
</g>
<defs>
<filter id="filter0_d_362_649" x="-2.5" y="-2" width="28" height="28" filterUnits="userSpaceOnUse" color-interpolation-filters="sRGB">
<feFlood flood-opacity="0" result="BackgroundImageFix"/>
<feColorMatrix in="SourceAlpha" type="matrix" values="0 0 0 0 0 0 0 0 0 0 0 0 0 0 0 0 0 0 127 0" result="hardAlpha"/>
<feOffset dy="2"/>
<feGaussianBlur stdDeviation="2"/>
<feComposite in2="hardAlpha" operator="out"/>
<feColorMatrix type="matrix" values="0 0 0 0 0.785325 0 0 0 0 0.785325 0 0 0 0 0.785325 0 0 0 0.32 0"/>
<feBlend mode="normal" in2="BackgroundImageFix" result="effect1_dropShadow_362_649"/>
<feBlend mode="normal" in="SourceGraphic" in2="effect1_dropShadow_362_649" result="shape"/>
</filter>
<filter id="filter1_d_362_649" x="0" y="0" width="24" height="22.5" filterUnits="userSpaceOnUse" color-interpolation-filters="sRGB">
<feFlood flood-opacity="0" result="BackgroundImageFix"/>
<feColorMatrix in="SourceAlpha" type="matrix" values="0 0 0 0 0 0 0 0 0 0 0 0 0 0 0 0 0 0 127 0" result="hardAlpha"/>
<feOffset dy="2"/>
<feGaussianBlur stdDeviation="2"/>
<feComposite in2="hardAlpha" operator="out"/>
<feColorMatrix type="matrix" values="0 0 0 0 0.445575 0 0 0 0 0.445575 0 0 0 0 0.445575 0 0 0 0.32 0"/>
<feBlend mode="normal" in2="BackgroundImageFix" result="effect1_dropShadow_362_649"/>
<feBlend mode="normal" in="SourceGraphic" in2="effect1_dropShadow_362_649" result="shape"/>
</filter>
<linearGradient id="paint0_linear_362_649" x1="12" y1="3" x2="12" y2="15.5" gradientUnits="userSpaceOnUse">
<stop stop-color="#F4F4F4"/>
<stop offset="1" stop-color="#DCDCDC"/>
</linearGradient>
</defs>
</svg>
