<svg width="20" height="20" viewBox="0 0 20 20" fill="none" xmlns="http://www.w3.org/2000/svg">
<g clip-path="url(#clip0_422_807)">
<g filter="url(#filter0_d_422_807)">
<rect width="15" height="15" rx="3" transform="matrix(0.998628 0.0523679 -0.0416989 0.99913 4.40137 3.61328)" fill="url(#paint0_linear_422_807)"/>
<rect x="0.478464" y="0.525749" width="14" height="14" rx="2.5" transform="matrix(0.998628 0.0523679 -0.0416989 0.99913 4.42395 3.58868)" stroke="#45403C"/>
</g>
<g filter="url(#filter1_dd_422_807)">
<path d="M1.00098 3V14C1.00098 15.1046 1.89641 16 3.00098 16H14.001C15.1055 16 16.001 15.1046 16.001 14V10.875C16.001 5 12.001 1 8.40098 1H3.00098C1.89641 1 1.00098 1.89543 1.00098 3Z" fill="url(#paint1_radial_422_807)"/>
<path d="M3.00098 1.5H8.40137C11.645 1.5003 15.501 5.18877 15.501 10.875V14C15.501 14.8284 14.8294 15.5 14.001 15.5H3.00098C2.17255 15.5 1.50098 14.8284 1.50098 14V3C1.50098 2.17157 2.17255 1.5 3.00098 1.5Z" stroke="#45403C"/>
</g>
<path d="M8.40137 1.5C8.51643 1.5 8.6648 1.53695 8.83652 1.60729C10.9037 2.45409 10.8554 5.23078 9.81889 7.2097C9.72914 7.38106 9.87327 7.58141 10.0643 7.55079L10.6922 7.45012C12.4547 7.16758 14.379 7.70514 15.0699 9.35098C15.3914 10.1167 15.5 10.743 15.5 11" stroke="#45403C"/>
<path d="M2 8H12C13.6569 8 15 9.34315 15 11V14C15 14.5523 14.5523 15 14 15H3C2.44772 15 2 14.5523 2 14V8Z" fill="url(#paint2_linear_422_807)"/>
</g>
<defs>
<filter id="filter0_d_422_807" x="-0.101562" y="1.76611" width="23.3604" height="23.4668" filterUnits="userSpaceOnUse" color-interpolation-filters="sRGB">
<feFlood flood-opacity="0" result="BackgroundImageFix"/>
<feColorMatrix in="SourceAlpha" type="matrix" values="0 0 0 0 0 0 0 0 0 0 0 0 0 0 0 0 0 0 127 0" result="hardAlpha"/>
<feOffset dy="2"/>
<feGaussianBlur stdDeviation="2"/>
<feComposite in2="hardAlpha" operator="out"/>
<feColorMatrix type="matrix" values="0 0 0 0 0.785325 0 0 0 0 0.785325 0 0 0 0 0.785325 0 0 0 0.32 0"/>
<feBlend mode="normal" in2="BackgroundImageFix" result="effect1_dropShadow_422_807"/>
<feBlend mode="normal" in="SourceGraphic" in2="effect1_dropShadow_422_807" result="shape"/>
</filter>
<filter id="filter1_dd_422_807" x="-2.99902" y="-1" width="23" height="23" filterUnits="userSpaceOnUse" color-interpolation-filters="sRGB">
<feFlood flood-opacity="0" result="BackgroundImageFix"/>
<feColorMatrix in="SourceAlpha" type="matrix" values="0 0 0 0 0 0 0 0 0 0 0 0 0 0 0 0 0 0 127 0" result="hardAlpha"/>
<feOffset dy="2"/>
<feGaussianBlur stdDeviation="2"/>
<feComposite in2="hardAlpha" operator="out"/>
<feColorMatrix type="matrix" values="0 0 0 0 0.785325 0 0 0 0 0.785325 0 0 0 0 0.785325 0 0 0 0.32 0"/>
<feBlend mode="normal" in2="BackgroundImageFix" result="effect1_dropShadow_422_807"/>
<feColorMatrix in="SourceAlpha" type="matrix" values="0 0 0 0 0 0 0 0 0 0 0 0 0 0 0 0 0 0 127 0" result="hardAlpha"/>
<feOffset dx="0.5" dy="0.5"/>
<feGaussianBlur stdDeviation="0.25"/>
<feComposite in2="hardAlpha" operator="out"/>
<feColorMatrix type="matrix" values="0 0 0 0 0 0 0 0 0 0 0 0 0 0 0 0 0 0 0.2 0"/>
<feBlend mode="normal" in2="effect1_dropShadow_422_807" result="effect2_dropShadow_422_807"/>
<feBlend mode="normal" in="SourceGraphic" in2="effect2_dropShadow_422_807" result="shape"/>
</filter>
<linearGradient id="paint0_linear_422_807" x1="7.5" y1="0" x2="7.5" y2="15" gradientUnits="userSpaceOnUse">
<stop stop-color="#F4F4F4"/>
<stop offset="1" stop-color="#DCDCDC"/>
</linearGradient>
<radialGradient id="paint1_radial_422_807" cx="0" cy="0" r="1" gradientTransform="matrix(-4.59752 3.97059 -3.97059 -5.12255 13.3307 3.20588)" gradientUnits="userSpaceOnUse">
<stop stop-color="#F8F8F8"/>
<stop offset="0.0001" stop-color="#DADADA"/>
<stop offset="1" stop-color="#F8F8F8"/>
</radialGradient>
<linearGradient id="paint2_linear_422_807" x1="8.5" y1="8" x2="8.5" y2="15" gradientUnits="userSpaceOnUse">
<stop stop-color="#F4F4F4" stop-opacity="0"/>
<stop offset="1" stop-color="#DCDCDC"/>
</linearGradient>
<clipPath id="clip0_422_807">
<rect width="20" height="20" fill="white"/>
</clipPath>
</defs>
</svg>
