<svg width="20" height="20" viewBox="0 0 20 20" fill="none" xmlns="http://www.w3.org/2000/svg">
<g clip-path="url(#clip0_410_26)">
<rect x="0.478464" y="0.525749" width="14" height="14" rx="2.5" transform="matrix(0.998628 0.0523679 -0.0416989 0.99913 5.42395 3.58868)" fill="url(#paint0_linear_410_26)" stroke="#45403C"/>
<path d="M4.00098 1.5H9.19824L9.5166 1.80762C10.9201 3.16637 11.261 5.28716 10.3545 7.01758C10.0778 7.54576 10.5581 8.15262 11.1357 8.00488L11.6562 7.87109C13.4291 7.4177 15.2731 8.29876 16.0342 9.96289L16.501 10.9844V14C16.501 14.8284 15.8294 15.5 15.001 15.5H4.00098C3.17255 15.5 2.50098 14.8284 2.50098 14V3C2.50098 2.17157 3.17255 1.5 4.00098 1.5ZM10.7568 1.70605C13.1289 2.40407 15.4993 4.85647 16.2529 8.45508C15.1161 7.10447 13.2918 6.46269 11.5098 6.87793C12.1661 5.13758 11.8775 3.18142 10.7568 1.70605Z" fill="url(#paint1_radial_410_26)" stroke="#45403C"/>
<path d="M3 8H16V14C16 14.5523 15.5523 15 15 15H4C3.44772 15 3 14.5523 3 14V8Z" fill="url(#paint2_linear_410_26)"/>
</g>
<defs>
<linearGradient id="paint0_linear_410_26" x1="7.5" y1="0" x2="7.5" y2="15" gradientUnits="userSpaceOnUse">
<stop stop-color="#F4F4F4"/>
<stop offset="1" stop-color="#DCDCDC"/>
</linearGradient>
<radialGradient id="paint1_radial_410_26" cx="0" cy="0" r="1" gradientTransform="matrix(-4.59752 3.97059 -3.97059 -5.12255 14.3307 3.20588)" gradientUnits="userSpaceOnUse">
<stop stop-color="#F8F8F8"/>
<stop offset="0.0001" stop-color="#DADADA"/>
<stop offset="1" stop-color="#F8F8F8"/>
</radialGradient>
<linearGradient id="paint2_linear_410_26" x1="9.5" y1="8" x2="9.5" y2="15" gradientUnits="userSpaceOnUse">
<stop stop-color="#F4F4F4" stop-opacity="0"/>
<stop offset="1" stop-color="#DCDCDC"/>
</linearGradient>
<clipPath id="clip0_410_26">
<rect width="20" height="20" fill="white"/>
</clipPath>
</defs>
</svg>
