<svg width="18" height="18" viewBox="0 0 18 18" fill="none" xmlns="http://www.w3.org/2000/svg">
<path d="M10.1973 2.52441C9.14264 1.77102 7.85559 1.4147 6.56348 1.51758C5.2714 1.6205 4.05688 2.17607 3.13477 3.08691C2.2127 3.99778 1.64221 5.20543 1.52344 6.49609C1.40477 7.78678 1.74588 9.07781 2.48633 10.1416C3.2268 11.2054 4.31879 11.9736 5.57031 12.3105C6.81559 12.6457 8.13942 12.5326 9.30957 11.9912L9.3457 11.9766L9.50586 11.9287C9.66789 11.8924 9.83647 11.8884 10.001 11.918L10.0527 11.9307L11.9502 12.4854C12.0215 12.5043 12.0971 12.5048 12.1699 12.4863C12.2425 12.4679 12.3094 12.4318 12.3633 12.3809C12.4172 12.3299 12.457 12.2655 12.4795 12.1943C12.5014 12.1249 12.5051 12.051 12.4912 11.9795L12.4893 11.9717L11.9023 10.1572C11.8964 10.1388 11.8915 10.1196 11.8877 10.1006C11.8412 9.86704 11.862 9.62505 11.9482 9.40332L11.9629 9.36914L12.0625 9.14941C12.5331 8.04125 12.6279 6.80667 12.3281 5.63574C12.0066 4.38002 11.2519 3.27786 10.1973 2.52441Z" fill="url(#paint0_linear_410_48)" stroke="#45403C" stroke-linecap="round" stroke-linejoin="round"/>
<path d="M5 17.5C5.27614 17.5 5.5 17.2761 5.5 17C5.5 16.7239 5.27614 16.5 5 16.5C4.73478 16.5 4.48051 16.3946 4.29297 16.207C4.10543 16.0195 4 15.7652 4 15.5C4 15.2239 3.77614 15 3.5 15C3.22386 15 3 15.2239 3 15.5C3 16.0304 3.21087 16.539 3.58594 16.9141C3.96101 17.2891 4.46957 17.5 5 17.5ZM8 17.5L8.75 17.5C9.02614 17.5 9.25 17.2761 9.25 17C9.25 16.7239 9.02614 16.5 8.75 16.5L8 16.5C7.72386 16.5 7.5 16.7239 7.5 17C7.5 17.2761 7.72386 17.5 8 17.5ZM11.75 17.5L12.5 17.5C12.7761 17.5 13 17.2761 13 17C13 16.7239 12.7761 16.5 12.5 16.5L11.75 16.5C11.4739 16.5 11.25 16.7239 11.25 17C11.25 17.2761 11.4739 17.5 11.75 17.5ZM15.5 17.5C16.0304 17.5 16.539 17.2891 16.9141 16.9141C17.2891 16.539 17.5 16.0304 17.5 15.5C17.5 15.2239 17.2761 15 17 15C16.7239 15 16.5 15.2239 16.5 15.5C16.5 15.7652 16.3946 16.0195 16.207 16.207C16.0195 16.3946 15.7652 16.5 15.5 16.5C15.2239 16.5 15 16.7239 15 17C15 17.2761 15.2239 17.5 15.5 17.5ZM15.5 4C15.7652 4 16.0195 4.10543 16.207 4.29297C16.3946 4.4805 16.5 4.73478 16.5 5C16.5 5.27614 16.7239 5.5 17 5.5C17.2761 5.5 17.5 5.27614 17.5 5C17.5 4.46957 17.2891 3.96101 16.9141 3.58594C16.539 3.21087 16.0304 3 15.5 3C15.2239 3 15 3.22386 15 3.5C15 3.77614 15.2239 4 15.5 4ZM17.5 11.75C17.5 11.4739 17.2761 11.25 17 11.25C16.7239 11.25 16.5 11.4739 16.5 11.75L16.5 12.5C16.5 12.7761 16.7239 13 17 13C17.2761 13 17.5 12.7761 17.5 12.5L17.5 11.75ZM17.5 8C17.5 7.72386 17.2761 7.5 17 7.5C16.7239 7.5 16.5 7.72386 16.5 8L16.5 8.75C16.5 9.02614 16.7239 9.25 17 9.25C17.2761 9.25 17.5 9.02614 17.5 8.75L17.5 8Z" fill="#45403C"/>
<defs>
<linearGradient id="paint0_linear_410_48" x1="7" y1="1" x2="7" y2="13" gradientUnits="userSpaceOnUse">
<stop stop-color="#F4F4F4"/>
<stop offset="1" stop-color="#DCDCDC"/>
</linearGradient>
</defs>
</svg>
