<svg width="25" height="25" viewBox="0 0 25 25" fill="none" xmlns="http://www.w3.org/2000/svg">
<g filter="url(#filter0_d_362_653)">
<path d="M13.1973 3.52441C12.1426 2.77102 10.8556 2.4147 9.56348 2.51758C8.2714 2.6205 7.05688 3.17607 6.13477 4.08691C5.2127 4.99778 4.64221 6.20543 4.52344 7.49609C4.40477 8.78678 4.74588 10.0778 5.48633 11.1416C6.2268 12.2054 7.31879 12.9736 8.57031 13.3105C9.81559 13.6457 11.1394 13.5326 12.3096 12.9912L12.3457 12.9766L12.5059 12.9287C12.6679 12.8924 12.8365 12.8884 13.001 12.918L13.0527 12.9307L14.9502 13.4854C15.0215 13.5043 15.0971 13.5048 15.1699 13.4863C15.2425 13.4679 15.3094 13.4318 15.3633 13.3809C15.4172 13.3299 15.457 13.2655 15.4795 13.1943C15.5014 13.1249 15.5051 13.051 15.4912 12.9795L15.4893 12.9717L14.9023 11.1572C14.8964 11.1388 14.8915 11.1196 14.8877 11.1006C14.8412 10.867 14.862 10.625 14.9482 10.4033L14.9629 10.3691L15.0625 10.1494C15.5331 9.04125 15.6279 7.80667 15.3281 6.63574C15.0066 5.38002 14.2519 4.27786 13.1973 3.52441Z" fill="url(#paint0_linear_362_653)" stroke="#45403C" stroke-linecap="round" stroke-linejoin="round"/>
<path d="M8 18.5C8.27614 18.5 8.5 18.2761 8.5 18C8.5 17.7239 8.27614 17.5 8 17.5C7.73478 17.5 7.48051 17.3946 7.29297 17.207C7.10543 17.0195 7 16.7652 7 16.5C7 16.2239 6.77614 16 6.5 16C6.22386 16 6 16.2239 6 16.5C6 17.0304 6.21087 17.539 6.58594 17.9141C6.96101 18.2891 7.46957 18.5 8 18.5ZM11 18.5L11.75 18.5C12.0261 18.5 12.25 18.2761 12.25 18C12.25 17.7239 12.0261 17.5 11.75 17.5L11 17.5C10.7239 17.5 10.5 17.7239 10.5 18C10.5 18.2761 10.7239 18.5 11 18.5ZM14.75 18.5L15.5 18.5C15.7761 18.5 16 18.2761 16 18C16 17.7239 15.7761 17.5 15.5 17.5L14.75 17.5C14.4739 17.5 14.25 17.7239 14.25 18C14.25 18.2761 14.4739 18.5 14.75 18.5ZM18.5 18.5C19.0304 18.5 19.539 18.2891 19.9141 17.9141C20.2891 17.539 20.5 17.0304 20.5 16.5C20.5 16.2239 20.2761 16 20 16C19.7239 16 19.5 16.2239 19.5 16.5C19.5 16.7652 19.3946 17.0195 19.207 17.207C19.0195 17.3946 18.7652 17.5 18.5 17.5C18.2239 17.5 18 17.7239 18 18C18 18.2761 18.2239 18.5 18.5 18.5ZM18.5 5C18.7652 5 19.0195 5.10543 19.207 5.29297C19.3946 5.4805 19.5 5.73478 19.5 6C19.5 6.27614 19.7239 6.5 20 6.5C20.2761 6.5 20.5 6.27614 20.5 6C20.5 5.46957 20.2891 4.96101 19.9141 4.58594C19.539 4.21087 19.0304 4 18.5 4C18.2239 4 18 4.22386 18 4.5C18 4.77614 18.2239 5 18.5 5ZM20.5 12.75C20.5 12.4739 20.2761 12.25 20 12.25C19.7239 12.25 19.5 12.4739 19.5 12.75L19.5 13.5C19.5 13.7761 19.7239 14 20 14C20.2761 14 20.5 13.7761 20.5 13.5L20.5 12.75ZM20.5 9C20.5 8.72386 20.2761 8.5 20 8.5C19.7239 8.5 19.5 8.72386 19.5 9L19.5 9.75C19.5 10.0261 19.7239 10.25 20 10.25C20.2761 10.25 20.5 10.0261 20.5 9.75L20.5 9Z" fill="#45403C"/>
</g>
<defs>
<filter id="filter0_d_362_653" x="-1" y="-1" width="26" height="26" filterUnits="userSpaceOnUse" color-interpolation-filters="sRGB">
<feFlood flood-opacity="0" result="BackgroundImageFix"/>
<feColorMatrix in="SourceAlpha" type="matrix" values="0 0 0 0 0 0 0 0 0 0 0 0 0 0 0 0 0 0 127 0" result="hardAlpha"/>
<feOffset dy="2"/>
<feGaussianBlur stdDeviation="2"/>
<feComposite in2="hardAlpha" operator="out"/>
<feColorMatrix type="matrix" values="0 0 0 0 0.445575 0 0 0 0 0.445575 0 0 0 0 0.445575 0 0 0 0.32 0"/>
<feBlend mode="normal" in2="BackgroundImageFix" result="effect1_dropShadow_362_653"/>
<feBlend mode="normal" in="SourceGraphic" in2="effect1_dropShadow_362_653" result="shape"/>
</filter>
<linearGradient id="paint0_linear_362_653" x1="10" y1="2" x2="10" y2="14" gradientUnits="userSpaceOnUse">
<stop stop-color="#F4F4F4"/>
<stop offset="1" stop-color="#DCDCDC"/>
</linearGradient>
</defs>
</svg>
