<svg width="26" height="26" viewBox="0 0 26 26" fill="none" xmlns="http://www.w3.org/2000/svg">
<g filter="url(#filter0_d_362_606)">
<path d="M8.00021 6.5C8.00021 5.96959 8.2111 5.46101 8.58614 5.08594C8.9612 4.71088 9.4698 4.50002 10.0002 4.5C10.3594 4.5 10.7084 4.59705 11.0129 4.77588C11.0634 4.32794 11.2643 3.90779 11.5861 3.58594C11.9612 3.21088 12.4698 3.00002 13.0002 3C13.5306 3 14.0392 3.21089 14.4143 3.58594C14.7361 3.90778 14.9365 4.32795 14.987 4.77588C15.2916 4.59688 15.6409 4.50001 16.0002 4.5C16.5306 4.5 17.0392 4.71089 17.4143 5.08594C17.7361 5.40778 17.9365 5.82795 17.987 6.27588C18.2916 6.09688 18.6409 6.00001 19.0002 6C19.5306 6 20.0392 6.21089 20.4143 6.58594C20.7893 6.96101 21.0002 7.46957 21.0002 8V12.5C21.0002 14.2239 20.3154 15.8772 19.0964 17.0962C17.8774 18.3152 16.2241 19 14.5002 19H13.0002C10.7658 19 9.36493 18.3009 8.15548 17.0996L8.15402 17.0986L5.45431 14.3984C5.44831 14.3924 5.44242 14.3862 5.43673 14.3799C5.09271 13.9988 4.90806 13.5 4.92159 12.9868C4.93518 12.4737 5.14586 11.9854 5.50948 11.623C5.8731 11.2607 6.36204 11.0518 6.87521 11.04C7.27579 11.0309 7.66711 11.1429 8.00021 11.3564V6.5Z" fill="url(#paint0_linear_362_606)"/>
<path d="M7.99923 6.5C7.99923 5.96959 8.21012 5.46101 8.58517 5.08594C8.96022 4.71088 9.46882 4.50002 9.99923 4.5C10.3584 4.5 10.7074 4.59705 11.0119 4.77588C11.0624 4.32794 11.2633 3.90779 11.5852 3.58594C11.9602 3.21088 12.4688 3.00002 12.9992 3C13.5296 3 14.0382 3.21089 14.4133 3.58594C14.7351 3.90778 14.9355 4.32795 14.986 4.77588C15.2906 4.59688 15.6399 4.50001 15.9992 4.5C16.5296 4.5 17.0382 4.71089 17.4133 5.08594C17.7351 5.40778 17.9355 5.82795 17.986 6.27588C18.2906 6.09688 18.6399 6.00001 18.9992 6C19.5296 6 20.0382 6.21089 20.4133 6.58594C20.7884 6.96101 20.9992 7.46957 20.9992 8V12.5C20.9992 14.2239 20.3144 15.8772 19.0954 17.0962C17.8764 18.3152 16.2231 19 14.4992 19H12.9992C10.7649 19 9.36396 18.3009 8.1545 17.0996L8.15304 17.0986L5.45333 14.3984C5.44733 14.3924 5.44144 14.3862 5.43575 14.3799C5.09174 13.9988 4.90708 13.5 4.92062 12.9868C4.9342 12.4737 5.14488 11.9854 5.50851 11.623C5.87212 11.2607 6.36107 11.0518 6.87423 11.04C7.27481 11.0309 7.66613 11.1429 7.99923 11.3564V6.5ZM10.9992 9.875V6.5C10.9992 6.23478 10.8938 5.98051 10.7063 5.79297C10.5187 5.60546 10.2644 5.5 9.99923 5.5C9.73404 5.50002 9.47972 5.60545 9.2922 5.79297C9.10469 5.9805 8.99923 6.2348 8.99923 6.5V12.293L9.60275 12.8965C9.79801 13.0917 9.79801 13.4083 9.60275 13.6035C9.40748 13.7987 9.09096 13.7988 8.89571 13.6035L7.58712 12.2949C7.39793 12.1255 7.15126 12.0342 6.89718 12.04C6.64059 12.0459 6.39588 12.1504 6.21407 12.3315C6.03239 12.5127 5.92743 12.7567 5.92062 13.0132C5.91391 13.2675 6.00447 13.5147 6.17355 13.7046L8.85909 16.3901C9.88461 17.4088 11.0337 18 12.9992 18H14.4992C15.9579 18 17.3569 17.4206 18.3884 16.3892C19.4198 15.3577 19.9992 13.9587 19.9992 12.5V8C19.9992 7.73478 19.8938 7.4805 19.7063 7.29297C19.5187 7.10546 19.2644 7 18.9992 7C18.734 7.00002 18.4797 7.10545 18.2922 7.29297C18.1047 7.4805 17.9992 7.7348 17.9992 8V10.25C17.9992 10.5261 17.7754 10.75 17.4992 10.75C17.2231 10.75 16.9992 10.5261 16.9992 10.25V6.5C16.9992 6.23478 16.8938 5.9805 16.7063 5.79297C16.5187 5.60546 16.2644 5.5 15.9992 5.5C15.734 5.50002 15.4797 5.60545 15.2922 5.79297C15.1047 5.9805 14.9992 6.2348 14.9992 6.5V9.5C14.9992 9.77614 14.7754 10 14.4992 10C14.2231 9.99996 13.9992 9.77612 13.9992 9.5V5C13.9992 4.73478 13.8938 4.4805 13.7063 4.29297C13.5187 4.10546 13.2644 4 12.9992 4C12.734 4.00002 12.4797 4.10545 12.2922 4.29297C12.1047 4.4805 11.9992 4.7348 11.9992 5V9.875C11.9992 10.1511 11.7754 10.375 11.4992 10.375C11.2231 10.375 10.9992 10.1511 10.9992 9.875Z" fill="#45403C"/>
</g>
<defs>
<filter id="filter0_d_362_606" x="-1" y="-1" width="28" height="28" filterUnits="userSpaceOnUse" color-interpolation-filters="sRGB">
<feFlood flood-opacity="0" result="BackgroundImageFix"/>
<feColorMatrix in="SourceAlpha" type="matrix" values="0 0 0 0 0 0 0 0 0 0 0 0 0 0 0 0 0 0 127 0" result="hardAlpha"/>
<feOffset dy="2"/>
<feGaussianBlur stdDeviation="2"/>
<feComposite in2="hardAlpha" operator="out"/>
<feColorMatrix type="matrix" values="0 0 0 0 0.785325 0 0 0 0 0.785325 0 0 0 0 0.785325 0 0 0 0.32 0"/>
<feBlend mode="normal" in2="BackgroundImageFix" result="effect1_dropShadow_362_606"/>
<feBlend mode="normal" in="SourceGraphic" in2="effect1_dropShadow_362_606" result="shape"/>
</filter>
<linearGradient id="paint0_linear_362_606" x1="12.9606" y1="3" x2="12.9606" y2="19" gradientUnits="userSpaceOnUse">
<stop stop-color="#F4F4F4"/>
<stop offset="1" stop-color="#DCDCDC"/>
</linearGradient>
</defs>
</svg>
