<svg width="18" height="18" viewBox="0 0 18 18" fill="none" xmlns="http://www.w3.org/2000/svg">
<path d="M16.1411 3.0752C16.141 2.75279 16.0127 2.44369 15.7847 2.2157C15.5567 1.98766 15.2474 1.85938 14.9249 1.85938C14.6024 1.85939 14.293 1.98767 14.065 2.2157L11.5151 4.76562C11.4448 4.83591 11.3494 4.87549 11.2499 4.87549C11.1505 4.87549 11.0551 4.83591 10.9848 4.76562L10.6849 4.4657C10.4569 4.23767 10.1475 4.10939 9.82501 4.10938C9.66533 4.10938 9.50709 4.14092 9.35956 4.20203C9.21206 4.26313 9.07805 4.3528 8.96515 4.4657C8.85226 4.5786 8.76258 4.7126 8.70148 4.86011C8.64041 5.00756 8.60885 5.1656 8.60883 5.3252C8.60883 5.64767 8.73714 5.95702 8.96515 6.18506L11.815 9.03528C11.9279 9.14819 12.0622 9.23784 12.2098 9.29895C12.3572 9.35999 12.5153 9.39123 12.6749 9.39124C12.8345 9.39124 12.9928 9.36005 13.1403 9.29895C13.2878 9.23785 13.4218 9.14816 13.5347 9.03528C13.6476 8.9224 13.7373 8.78835 13.7984 8.64087C13.8595 8.49335 13.891 8.33508 13.8911 8.17542C13.8911 8.01573 13.8595 7.85749 13.7984 7.70996C13.7373 7.56245 13.6476 7.42846 13.5347 7.31555L13.2348 7.01562C13.0884 6.8692 13.0884 6.6318 13.2348 6.48535L15.7847 3.93506C16.0127 3.70702 16.1411 3.39767 16.1411 3.0752ZM2.62274 15.2224C2.61986 15.2802 2.61367 15.3376 2.60553 15.3945C2.69292 15.382 2.78172 15.3755 2.87103 15.3755H3.87885C4.17716 15.3754 4.46333 15.2568 4.67426 15.0459L10.7193 9.00012L8.99994 7.28076L2.95453 13.3262C2.74358 13.5371 2.625 13.8233 2.62494 14.1216V15.1294L2.62274 15.2224ZM16.8911 3.0752C16.8911 3.59661 16.6837 4.097 16.315 4.4657L14.0302 6.75049L14.065 6.78528C14.2475 6.9678 14.3925 7.18438 14.4913 7.42285C14.5901 7.66138 14.6411 7.91724 14.6411 8.17542C14.641 8.43354 14.59 8.68913 14.4913 8.92761C14.3925 9.16614 14.2476 9.38299 14.065 9.56555C13.8825 9.74806 13.6659 9.89303 13.4274 9.99182C13.1889 10.0906 12.933 10.1412 12.6749 10.1412C12.4168 10.1412 12.1611 10.0906 11.9227 9.99182C11.6841 9.89302 11.4673 9.74811 11.2847 9.56555L11.2499 9.53076L5.20453 15.5762C4.853 15.9277 4.37602 16.1254 3.87885 16.1255H2.87103C2.60993 16.1255 2.35819 16.2163 2.15802 16.3804L2.07562 16.4551L1.76508 16.7656C1.61865 16.912 1.38124 16.912 1.2348 16.7656C1.08838 16.6192 1.08842 16.3818 1.2348 16.2354L1.54535 15.9248C1.75632 15.7139 1.87485 15.4277 1.87494 15.1294V14.1212C1.87507 13.624 2.07262 13.1471 2.42426 12.7955L8.4693 6.75012L8.43488 6.7157C8.06618 6.347 7.85883 5.84661 7.85883 5.3252C7.85885 5.06708 7.90983 4.81147 8.00861 4.573C8.10741 4.33448 8.25232 4.11761 8.43488 3.93506C8.61737 3.7526 8.83404 3.60793 9.07245 3.50916C9.31098 3.41036 9.56684 3.35938 9.82501 3.35938C10.3464 3.35939 10.8465 3.56641 11.2152 3.93506L11.2499 3.96985L13.5347 1.68506C13.9034 1.31641 14.4035 1.10939 14.9249 1.10938C15.4462 1.10938 15.9463 1.31644 16.315 1.68506C16.6837 2.05371 16.891 2.55384 16.8911 3.0752Z" fill="#9B9B9B"/>
<path d="M15.0947 1.36816C15.4878 1.40716 15.8571 1.58075 16.1387 1.8623C16.4602 2.18385 16.6415 2.61993 16.6416 3.0752C16.6416 3.53047 16.4603 3.9674 16.1387 4.28906L13.6768 6.75L13.8887 6.96191C14.0478 7.12106 14.1744 7.31022 14.2607 7.51855C14.3469 7.72662 14.3916 7.95029 14.3916 8.17578C14.3915 8.40107 14.3469 8.62411 14.2607 8.83203C14.1744 9.04032 14.0478 9.2295 13.8887 9.38867C13.7295 9.54778 13.5404 9.67442 13.332 9.76074C13.1234 9.84713 12.9003 9.89155 12.6758 9.8916C12.4511 9.89159 12.2279 9.84695 12.0195 9.76074H12.0186C11.8107 9.67458 11.6213 9.54805 11.4619 9.38867L8.6123 6.53906C8.29067 6.2174 8.10938 5.78047 8.10938 5.3252L8.11816 5.15625C8.13478 4.98885 8.17575 4.82467 8.24023 4.66895C8.32656 4.46053 8.4532 4.27143 8.6123 4.1123C8.77148 3.95313 8.96059 3.82655 9.16895 3.74023C9.37687 3.65413 9.59987 3.60942 9.8252 3.60938C10.2804 3.6094 10.7174 3.79061 11.0391 4.1123L11.25 4.32324L13.7119 1.8623C14.0336 1.54061 14.4706 1.3594 14.9258 1.35938L15.0947 1.36816Z" fill="#DEDEDE" stroke="#45403C" stroke-linecap="round" stroke-linejoin="round"/>
<path d="M8.72461 6.8623C8.91869 6.73414 9.18265 6.75589 9.35352 6.92676L11.0732 8.64648C11.2681 8.84177 11.2684 9.15837 11.0732 9.35352L5.02832 15.3994C4.76183 15.6659 4.41181 15.8301 4.04004 15.8672L3.87891 15.875H3.05078L1.81738 16.8857C1.61607 17.0509 1.32158 17.0339 1.14062 16.8467C0.959943 16.6596 0.952548 16.3655 1.12402 16.1699L2.125 15.0303V14.1211C2.12509 13.6902 2.29589 13.2764 2.60059 12.9717L8.64648 6.92676L8.72461 6.8623Z" fill="url(#paint0_linear_411_9)" stroke="#45403C" stroke-linecap="round" stroke-linejoin="round"/>
<defs>
<linearGradient id="paint0_linear_411_9" x1="6.10968" y1="7.28027" x2="6.10968" y2="16.4996" gradientUnits="userSpaceOnUse">
<stop stop-color="#F4F4F4"/>
<stop offset="1" stop-color="#DCDCDC"/>
</linearGradient>
</defs>
</svg>
