<svg width="25" height="25" viewBox="0 0 25 25" fill="none" xmlns="http://www.w3.org/2000/svg">
<g filter="url(#filter0_d_362_658)">
<path d="M19.1411 4.21582C19.141 3.89341 19.0127 3.58432 18.7847 3.35632C18.5567 3.12828 18.2474 3 17.9249 3C17.6024 3.00002 17.293 3.1283 17.065 3.35632L14.5151 5.90625C14.4448 5.97654 14.3494 6.01611 14.2499 6.01611C14.1505 6.01611 14.0551 5.97654 13.9848 5.90625L13.6849 5.60632C13.4569 5.3783 13.1475 5.25002 12.825 5.25C12.6653 5.25 12.5071 5.28154 12.3596 5.34265C12.2121 5.40376 12.078 5.49343 11.9652 5.60632C11.8523 5.71923 11.7626 5.85323 11.7015 6.00073C11.6404 6.14819 11.6088 6.30622 11.6088 6.46582C11.6088 6.7883 11.7371 7.09765 11.9652 7.32568L14.815 10.1759C14.9279 10.2888 15.0622 10.3785 15.2098 10.4396C15.3572 10.5006 15.5153 10.5319 15.6749 10.5319C15.8345 10.5319 15.9928 10.5007 16.1403 10.4396C16.2878 10.3785 16.4218 10.2888 16.5347 10.1759C16.6476 10.063 16.7373 9.92897 16.7984 9.78149C16.8595 9.63398 16.891 9.47571 16.8911 9.31604C16.8911 9.15635 16.8595 8.99812 16.7984 8.85059C16.7373 8.70307 16.6476 8.56908 16.5347 8.45618L16.2348 8.15625C16.0884 8.00982 16.0884 7.77243 16.2348 7.62598L18.7847 5.07568C19.0127 4.84765 19.1411 4.5383 19.1411 4.21582ZM5.62274 16.363C5.61986 16.4209 5.61367 16.4782 5.60553 16.5352C5.69292 16.5226 5.78172 16.5161 5.87103 16.5161H6.87885C7.17716 16.516 7.46333 16.3975 7.67426 16.1865L13.7193 10.1407L11.9999 8.42139L5.95453 14.4668C5.74358 14.6777 5.625 14.9639 5.62494 15.2622V16.27L5.62274 16.363ZM19.8911 4.21582C19.8911 4.73723 19.6837 5.23763 19.315 5.60632L17.0302 7.89111L17.065 7.9259C17.2475 8.10843 17.3925 8.32501 17.4913 8.56348C17.5901 8.802 17.6411 9.05786 17.6411 9.31604C17.641 9.57417 17.59 9.82975 17.4913 10.0682C17.3925 10.3068 17.2476 10.5236 17.065 10.7062C16.8825 10.8887 16.6659 11.0337 16.4274 11.1324C16.1889 11.2312 15.933 11.2819 15.6749 11.2819C15.4168 11.2819 15.1611 11.2312 14.9227 11.1324C14.6841 11.0336 14.4673 10.8887 14.2847 10.7062L14.2499 10.6714L8.20453 16.7168C7.853 17.0684 7.37602 17.266 6.87885 17.2661H5.87103C5.60993 17.2662 5.35819 17.3569 5.15802 17.521L5.07562 17.5957L4.76508 17.9062C4.61865 18.0526 4.38124 18.0526 4.2348 17.9062C4.08838 17.7598 4.08842 17.5224 4.2348 17.376L4.54535 17.0654C4.75632 16.8545 4.87485 16.5683 4.87494 16.27V15.2618C4.87507 14.7646 5.07262 14.2877 5.42426 13.9362L11.4693 7.89075L11.4349 7.85632C11.0662 7.48763 10.8588 6.98723 10.8588 6.46582C10.8588 6.2077 10.9098 5.9521 11.0086 5.71362C11.1074 5.4751 11.2523 5.25824 11.4349 5.07568C11.6174 4.89322 11.834 4.74856 12.0725 4.64978C12.311 4.55098 12.5668 4.5 12.825 4.5C13.3464 4.50002 13.8465 4.70704 14.2152 5.07568L14.2499 5.11047L16.5347 2.82568C16.9034 2.45704 17.4035 2.25002 17.9249 2.25C18.4462 2.25 18.9463 2.45706 19.315 2.82568C19.6837 3.19434 19.891 3.69447 19.8911 4.21582Z" fill="#9B9B9B"/>
<path d="M18.0947 2.50879C18.4878 2.54779 18.8571 2.72137 19.1387 3.00293C19.4602 3.32447 19.6415 3.76055 19.6416 4.21582C19.6416 4.67109 19.4603 5.10802 19.1387 5.42969L16.6768 7.89062L16.8887 8.10254C17.0478 8.26169 17.1744 8.45084 17.2607 8.65918C17.3469 8.86724 17.3916 9.09092 17.3916 9.31641C17.3915 9.5417 17.3469 9.76473 17.2607 9.97266C17.1744 10.1809 17.0478 10.3701 16.8887 10.5293C16.7295 10.6884 16.5404 10.815 16.332 10.9014C16.1234 10.9878 15.9003 11.0322 15.6758 11.0322C15.4511 11.0322 15.2279 10.9876 15.0195 10.9014H15.0186C14.8107 10.8152 14.6213 10.6887 14.4619 10.5293L11.6123 7.67969C11.2907 7.35802 11.1094 6.92109 11.1094 6.46582L11.1182 6.29688C11.1348 6.12948 11.1758 5.96529 11.2402 5.80957C11.3266 5.60116 11.4532 5.41206 11.6123 5.25293C11.7715 5.09376 11.9606 4.96718 12.1689 4.88086C12.3769 4.79475 12.5999 4.75005 12.8252 4.75C13.2804 4.75003 13.7174 4.93124 14.0391 5.25293L14.25 5.46387L16.7119 3.00293C17.0336 2.68124 17.4706 2.50003 17.9258 2.5L18.0947 2.50879Z" fill="#DEDEDE" stroke="#45403C" stroke-linecap="round" stroke-linejoin="round"/>
<path d="M12 7.92139C12.1326 7.92139 12.2597 7.9741 12.3535 8.06787L14.0732 9.7876C14.2681 9.98288 14.2684 10.2995 14.0732 10.4946L8.02832 16.5405C7.76183 16.807 7.41181 16.9712 7.04004 17.0083L6.87891 17.0161H5.87109C5.80613 17.0161 5.74109 17.0206 5.67676 17.0298C5.521 17.0521 5.36327 17.0004 5.25195 16.8892C5.14064 16.7779 5.08807 16.6202 5.11035 16.4644C5.11687 16.4188 5.1211 16.3772 5.12305 16.3384L5.125 16.27V15.2622L5.13281 15.1011C5.1699 14.7293 5.33408 14.3793 5.60059 14.1128L11.6465 8.06787L11.7227 8.00537C11.8042 7.95102 11.9006 7.92139 12 7.92139Z" fill="url(#paint0_linear_362_658)" stroke="#45403C" stroke-linecap="round" stroke-linejoin="round"/>
</g>
<defs>
<filter id="filter0_d_362_658" x="-1" y="-0.858887" width="26" height="26" filterUnits="userSpaceOnUse" color-interpolation-filters="sRGB">
<feFlood flood-opacity="0" result="BackgroundImageFix"/>
<feColorMatrix in="SourceAlpha" type="matrix" values="0 0 0 0 0 0 0 0 0 0 0 0 0 0 0 0 0 0 127 0" result="hardAlpha"/>
<feOffset dy="2"/>
<feGaussianBlur stdDeviation="2"/>
<feComposite in2="hardAlpha" operator="out"/>
<feColorMatrix type="matrix" values="0 0 0 0 0.445575 0 0 0 0 0.445575 0 0 0 0 0.445575 0 0 0 0.32 0"/>
<feBlend mode="normal" in2="BackgroundImageFix" result="effect1_dropShadow_362_658"/>
<feBlend mode="normal" in="SourceGraphic" in2="effect1_dropShadow_362_658" result="shape"/>
</filter>
<linearGradient id="paint0_linear_362_658" x1="9.10968" y1="8.42139" x2="9.10968" y2="17.6407" gradientUnits="userSpaceOnUse">
<stop stop-color="#F4F4F4"/>
<stop offset="1" stop-color="#DCDCDC"/>
</linearGradient>
</defs>
</svg>
