<svg width="20" height="20" viewBox="0 0 20 20" fill="none" xmlns="http://www.w3.org/2000/svg">
<path d="M3.63949 2.83582C3.79384 2.8183 3.95018 2.84109 4.09408 2.90125L17.4281 8.31727C17.6063 8.38994 17.7576 8.51732 17.8597 8.68055C17.9618 8.84386 18.0102 9.03525 17.9974 9.22742C17.9846 9.41958 17.9112 9.60302 17.7884 9.75135C17.6656 9.89958 17.4992 10.0052 17.3128 10.0536L12.2088 11.3705C12.007 11.4224 11.8222 11.5275 11.6746 11.6747C11.5274 11.8216 11.4219 12.0052 11.3695 12.2064L10.054 17.3119L10.0536 17.3129C10.0052 17.4992 9.89953 17.6656 9.75131 17.7885C9.60298 17.9113 9.41953 17.9846 9.22738 17.9974C9.03521 18.0102 8.84381 17.9618 8.68051 17.8597C8.51728 17.7577 8.39038 17.6069 8.31771 17.4286L2.90072 4.09461C2.83172 3.92957 2.81252 3.74756 2.84603 3.57166L2.86117 3.50477C2.90264 3.351 2.98383 3.21023 3.09701 3.09705L3.1473 3.05067C3.26808 2.94676 3.41433 2.87605 3.57162 2.84608L3.63949 2.83582Z" fill="url(#paint0_linear_410_9)"/>
<path d="M3.63949 2.83582C3.79384 2.8183 3.95018 2.84109 4.09408 2.90125L4.09457 2.90076L17.4281 8.31727L17.4286 8.31776C17.6068 8.39042 17.7576 8.51732 17.8597 8.68055C17.9618 8.84386 18.0102 9.03525 17.9974 9.22742C17.9846 9.41958 17.9112 9.60302 17.7884 9.75135C17.6656 9.89958 17.4992 10.0052 17.3128 10.0536L17.3123 10.0541L12.2088 11.3705H12.2083C12.0065 11.4224 11.8222 11.5275 11.6746 11.6747C11.5274 11.8216 11.4219 12.0052 11.3695 12.2064L11.37 12.2069L10.054 17.3119L10.0536 17.3129C10.0052 17.4992 9.89953 17.6656 9.75131 17.7885C9.60298 17.9113 9.41953 17.9846 9.22738 17.9974C9.03521 18.0102 8.84381 17.9618 8.68051 17.8597C8.51728 17.7577 8.39038 17.6069 8.31771 17.4286L8.31722 17.4281L2.90072 4.09461L2.90121 4.09412C2.83221 3.92908 2.81252 3.74756 2.84603 3.57166L2.86117 3.50477C2.90264 3.351 2.98383 3.21023 3.09701 3.09705L3.1473 3.05067C3.26808 2.94676 3.41433 2.87605 3.57162 2.84608L3.63949 2.83582ZM9.14877 16.8173L10.4012 11.9574L10.4017 11.9569C10.4988 11.5823 10.6946 11.2406 10.9686 10.9672C11.2424 10.6939 11.5842 10.4986 11.9588 10.4022L16.8172 9.14881L3.90121 3.90125L9.14877 16.8173Z" fill="#45403C"/>
<defs>
<linearGradient id="paint0_linear_410_9" x1="10.4147" y1="2.83008" x2="10.4147" y2="17.9995" gradientUnits="userSpaceOnUse">
<stop stop-color="#F4F4F4"/>
<stop offset="1" stop-color="#DCDCDC"/>
</linearGradient>
</defs>
</svg>
