<svg width="24" height="24" viewBox="0 0 24 24" fill="none" xmlns="http://www.w3.org/2000/svg">
<g filter="url(#filter0_d_362_602)">
<path d="M4.80941 2.83582C4.96377 2.8183 5.1201 2.84109 5.264 2.90125L18.598 8.31727C18.7762 8.38994 18.9276 8.51732 19.0296 8.68055C19.1317 8.84386 19.1801 9.03525 19.1673 9.22742C19.1545 9.41958 19.0812 9.60302 18.9583 9.75135C18.8355 9.89958 18.6691 10.0052 18.4828 10.0536L13.3787 11.3705C13.1769 11.4224 12.9921 11.5275 12.8446 11.6747C12.6974 11.8216 12.5918 12.0052 12.5394 12.2064L11.224 17.3119L11.2235 17.3129C11.1751 17.4992 11.0695 17.6656 10.9212 17.7885C10.7729 17.9113 10.5895 17.9846 10.3973 17.9974C10.2051 18.0102 10.0137 17.9618 9.85043 17.8597C9.6872 17.7577 9.5603 17.6069 9.48763 17.4286L4.07064 4.09461C4.00165 3.92957 3.98244 3.74756 4.01595 3.57166L4.03109 3.50477C4.07257 3.351 4.15375 3.21023 4.26693 3.09705L4.31722 3.05067C4.438 2.94676 4.58426 2.87605 4.74154 2.84608L4.80941 2.83582Z" fill="url(#paint0_linear_362_602)"/>
<path d="M4.80941 2.83582C4.96377 2.8183 5.1201 2.84109 5.264 2.90125L5.26449 2.90076L18.598 8.31727L18.5985 8.31776C18.7767 8.39042 18.9276 8.51732 19.0296 8.68055C19.1317 8.84386 19.1801 9.03525 19.1673 9.22742C19.1545 9.41958 19.0812 9.60302 18.9583 9.75135C18.8355 9.89958 18.6691 10.0052 18.4828 10.0536L18.4823 10.0541L13.3787 11.3705H13.3783C13.1764 11.4224 12.9921 11.5275 12.8446 11.6747C12.6974 11.8216 12.5918 12.0052 12.5394 12.2064L12.5399 12.2069L11.224 17.3119L11.2235 17.3129C11.1751 17.4992 11.0695 17.6656 10.9212 17.7885C10.7729 17.9113 10.5895 17.9846 10.3973 17.9974C10.2051 18.0102 10.0137 17.9618 9.85043 17.8597C9.6872 17.7577 9.5603 17.6069 9.48763 17.4286L9.48715 17.4281L4.07064 4.09461L4.07113 4.09412C4.00213 3.92908 3.98244 3.74756 4.01595 3.57166L4.03109 3.50477C4.07257 3.351 4.15375 3.21023 4.26693 3.09705L4.31722 3.05067C4.438 2.94676 4.58426 2.87605 4.74154 2.84608L4.80941 2.83582ZM10.3187 16.8173L11.5711 11.9574L11.5716 11.9569C11.6688 11.5823 11.8646 11.2406 12.1385 10.9672C12.4123 10.6939 12.7541 10.4986 13.1287 10.4022L17.9871 9.14881L5.07113 3.90125L10.3187 16.8173Z" fill="#45403C"/>
</g>
<defs>
<filter id="filter0_d_362_602" x="-2.83008" y="-2" width="28" height="28" filterUnits="userSpaceOnUse" color-interpolation-filters="sRGB">
<feFlood flood-opacity="0" result="BackgroundImageFix"/>
<feColorMatrix in="SourceAlpha" type="matrix" values="0 0 0 0 0 0 0 0 0 0 0 0 0 0 0 0 0 0 127 0" result="hardAlpha"/>
<feOffset dy="2"/>
<feGaussianBlur stdDeviation="2"/>
<feComposite in2="hardAlpha" operator="out"/>
<feColorMatrix type="matrix" values="0 0 0 0 0.785325 0 0 0 0 0.785325 0 0 0 0 0.785325 0 0 0 0.32 0"/>
<feBlend mode="normal" in2="BackgroundImageFix" result="effect1_dropShadow_362_602"/>
<feBlend mode="normal" in="SourceGraphic" in2="effect1_dropShadow_362_602" result="shape"/>
</filter>
<linearGradient id="paint0_linear_362_602" x1="11.5847" y1="2.83008" x2="11.5847" y2="17.9995" gradientUnits="userSpaceOnUse">
<stop stop-color="#F4F4F4"/>
<stop offset="1" stop-color="#DCDCDC"/>
</linearGradient>
</defs>
</svg>
