<svg width="26" height="26" viewBox="0 0 26 26" fill="none" xmlns="http://www.w3.org/2000/svg">
<g filter="url(#filter0_d_362_663)">
<path d="M12.3335 19.1665V17.5C12.3335 17.2239 12.5574 17 12.8335 17C13.1096 17.0001 13.3335 17.2239 13.3335 17.5V19.1665C13.3335 19.4426 13.1096 19.6664 12.8335 19.6665C12.5574 19.6665 12.3335 19.4426 12.3335 19.1665ZM7.76318 15.1963C7.95843 15.0012 8.27498 15.0011 8.47021 15.1963C8.66544 15.3915 8.66536 15.708 8.47021 15.9033L7.29541 17.0786C7.10015 17.2739 6.78315 17.2739 6.58789 17.0786C6.39277 16.8834 6.39283 16.5668 6.58789 16.3716L7.76318 15.1963ZM17.1963 15.1963C17.3915 15.0011 17.708 15.0012 17.9033 15.1963L19.0786 16.3716C19.2738 16.5669 19.2738 16.8834 19.0786 17.0786C18.8834 17.2738 18.5669 17.2738 18.3716 17.0786L17.1963 15.9033C17.0012 15.708 17.0011 15.3915 17.1963 15.1963ZM15.6665 10.8335C15.6665 9.26874 14.3982 8.00009 12.8335 8C11.2687 8 10 9.26869 10 10.8335C10.0001 12.3982 11.2687 13.6665 12.8335 13.6665C14.3982 13.6664 15.6664 12.3982 15.6665 10.8335ZM6.1665 10.3335C6.44265 10.3335 6.6665 10.5574 6.6665 10.8335C6.66642 11.1096 6.44259 11.3335 6.1665 11.3335H4.5C4.22391 11.3335 4.00009 11.1096 4 10.8335C4 10.5574 4.22386 10.3335 4.5 10.3335H6.1665ZM21.1665 10.3335C21.4426 10.3335 21.6665 10.5574 21.6665 10.8335C21.6664 11.1096 21.4426 11.3335 21.1665 11.3335H19.5C19.2239 11.3335 19.0001 11.1096 19 10.8335C19 10.5574 19.2239 10.3335 19.5 10.3335H21.1665ZM6.58789 4.58789C6.78315 4.39263 7.10015 4.39264 7.29541 4.58789L8.47021 5.76318C8.66544 5.95845 8.66547 6.27496 8.47021 6.47021C8.27496 6.66547 7.95845 6.66544 7.76318 6.47021L6.58789 5.29541C6.39264 5.10015 6.39263 4.78315 6.58789 4.58789ZM18.3716 4.58789C18.5668 4.39283 18.8834 4.39277 19.0786 4.58789C19.2739 4.78315 19.2739 5.10015 19.0786 5.29541L17.9033 6.47021C17.708 6.66536 17.3915 6.66544 17.1963 6.47021C17.0011 6.27498 17.0012 5.95843 17.1963 5.76318L18.3716 4.58789ZM12.3335 4.1665V2.5C12.3335 2.22386 12.5574 2 12.8335 2C13.1096 2.00009 13.3335 2.22391 13.3335 2.5V4.1665C13.3335 4.44259 13.1096 4.66642 12.8335 4.6665C12.5574 4.6665 12.3335 4.44265 12.3335 4.1665ZM16.6665 10.8335C16.6664 12.9505 14.9505 14.6664 12.8335 14.6665C10.7165 14.6665 9.00009 12.9505 9 10.8335C9 8.7164 10.7164 7 12.8335 7C14.9505 7.00009 16.6665 8.71646 16.6665 10.8335Z" fill="#45403C"/>
<circle cx="12.833" cy="10.8335" r="3.5" fill="url(#paint0_linear_362_663)" stroke="#45403C"/>
</g>
<defs>
<filter id="filter0_d_362_663" x="-1.16699" y="-1.1665" width="28" height="28" filterUnits="userSpaceOnUse" color-interpolation-filters="sRGB">
<feFlood flood-opacity="0" result="BackgroundImageFix"/>
<feColorMatrix in="SourceAlpha" type="matrix" values="0 0 0 0 0 0 0 0 0 0 0 0 0 0 0 0 0 0 127 0" result="hardAlpha"/>
<feOffset dy="2"/>
<feGaussianBlur stdDeviation="2"/>
<feComposite in2="hardAlpha" operator="out"/>
<feColorMatrix type="matrix" values="0 0 0 0 0.445575 0 0 0 0 0.445575 0 0 0 0 0.445575 0 0 0 0.32 0"/>
<feBlend mode="normal" in2="BackgroundImageFix" result="effect1_dropShadow_362_663"/>
<feBlend mode="normal" in="SourceGraphic" in2="effect1_dropShadow_362_663" result="shape"/>
</filter>
<linearGradient id="paint0_linear_362_663" x1="12.833" y1="7.8335" x2="12.833" y2="13.8335" gradientUnits="userSpaceOnUse">
<stop stop-color="#F4F4F4"/>
<stop offset="1" stop-color="#DCDCDC"/>
</linearGradient>
</defs>
</svg>
