<svg width="20" height="20" viewBox="0 0 20 20" fill="none" xmlns="http://www.w3.org/2000/svg">
<path d="M9.50049 18.3335V16.667C9.50049 16.3909 9.72435 16.167 10.0005 16.167C10.2766 16.1671 10.5005 16.3909 10.5005 16.667V18.3335C10.5005 18.6096 10.2766 18.8334 10.0005 18.8335C9.72435 18.8335 9.50049 18.6096 9.50049 18.3335ZM4.93018 14.3633C5.12542 14.1682 5.44198 14.1681 5.63721 14.3633C5.83243 14.5585 5.83236 14.875 5.63721 15.0703L4.4624 16.2456C4.26714 16.4409 3.95014 16.4409 3.75488 16.2456C3.55976 16.0504 3.55983 15.7338 3.75488 15.5386L4.93018 14.3633ZM14.3633 14.3633C14.5585 14.1681 14.875 14.1682 15.0703 14.3633L16.2456 15.5386C16.4408 15.7338 16.4408 16.0504 16.2456 16.2456C16.0504 16.4408 15.7338 16.4408 15.5386 16.2456L14.3633 15.0703C14.1682 14.875 14.1681 14.5585 14.3633 14.3633ZM12.8335 10.0005C12.8335 8.43574 11.5652 7.16708 10.0005 7.16699C8.43568 7.16699 7.16699 8.43568 7.16699 10.0005C7.16708 11.5652 8.43574 12.8335 10.0005 12.8335C11.5652 12.8334 12.8334 11.5652 12.8335 10.0005ZM3.3335 9.50049C3.60964 9.50049 3.8335 9.72435 3.8335 10.0005C3.83341 10.2766 3.60958 10.5005 3.3335 10.5005H1.66699C1.3909 10.5005 1.16708 10.2766 1.16699 10.0005C1.16699 9.72435 1.39085 9.50049 1.66699 9.50049H3.3335ZM18.3335 9.50049C18.6096 9.50049 18.8335 9.72435 18.8335 10.0005C18.8334 10.2766 18.6096 10.5005 18.3335 10.5005H16.667C16.3909 10.5005 16.1671 10.2766 16.167 10.0005C16.167 9.72435 16.3909 9.50049 16.667 9.50049H18.3335ZM3.75488 3.75488C3.95014 3.55963 4.26714 3.55964 4.4624 3.75488L5.63721 4.93018C5.83244 5.12544 5.83246 5.44196 5.63721 5.63721C5.44196 5.83246 5.12544 5.83244 4.93018 5.63721L3.75488 4.4624C3.55964 4.26714 3.55963 3.95014 3.75488 3.75488ZM15.5386 3.75488C15.7338 3.55983 16.0504 3.55976 16.2456 3.75488C16.4409 3.95014 16.4409 4.26714 16.2456 4.4624L15.0703 5.63721C14.875 5.83236 14.5585 5.83243 14.3633 5.63721C14.1681 5.44198 14.1682 5.12542 14.3633 4.93018L15.5386 3.75488ZM9.50049 3.3335V1.66699C9.50049 1.39085 9.72435 1.16699 10.0005 1.16699C10.2766 1.16708 10.5005 1.3909 10.5005 1.66699V3.3335C10.5005 3.60958 10.2766 3.83341 10.0005 3.8335C9.72435 3.8335 9.50049 3.60964 9.50049 3.3335ZM13.8335 10.0005C13.8334 12.1175 12.1175 13.8334 10.0005 13.8335C7.88345 13.8335 6.16708 12.1175 6.16699 10.0005C6.16699 7.8834 7.8834 6.16699 10.0005 6.16699C12.1175 6.16708 13.8335 7.88345 13.8335 10.0005Z" fill="#45403C"/>
<circle cx="10" cy="10" r="3.5" fill="url(#paint0_linear_411_13)" stroke="#45403C"/>
<defs>
<linearGradient id="paint0_linear_411_13" x1="10" y1="7" x2="10" y2="13" gradientUnits="userSpaceOnUse">
<stop stop-color="#F4F4F4"/>
<stop offset="1" stop-color="#DCDCDC"/>
</linearGradient>
</defs>
</svg>
