<svg width="20" height="20" viewBox="0 0 20 20" fill="none" xmlns="http://www.w3.org/2000/svg">
<rect x="0.5" y="1.5" width="10" height="10" rx="1.5" fill="url(#paint0_linear_410_31)" stroke="#C4BEBB"/>
<rect x="6.5" y="8.5" width="9" height="9" rx="4.5" fill="url(#paint1_linear_410_31)" stroke="#C4BEBB"/>
<path d="M13 1.5C12.7239 1.5 12.5 1.72386 12.5 2C12.5 2.27614 12.7239 2.5 13 2.5L13 2L13 1.5ZM17 8L16.6464 8.35355L17 8.70711L17.3536 8.35355L17 8ZM19.3536 6.35355L19.7071 6L19 5.29289L18.6464 5.64645L19 6L19.3536 6.35355ZM15.3536 5.64645L15 5.29289L14.2929 6L14.6464 6.35355L15 6L15.3536 5.64645ZM13 2L13 2.5L15 2.5L15 2L15 1.5L13 1.5L13 2ZM17 4L16.5 4L16.5 8L17 8L17.5 8L17.5 4L17 4ZM17 8L17.3536 8.35355L19.3536 6.35355L19 6L18.6464 5.64645L16.6464 7.64645L17 8ZM17 8L17.3536 7.64645L15.3536 5.64645L15 6L14.6464 6.35355L16.6464 8.35355L17 8ZM15 2L15 2.5C15.8284 2.5 16.5 3.17157 16.5 4L17 4L17.5 4C17.5 2.61929 16.3807 1.5 15 1.5L15 2Z" fill="#C4BEBB"/>
<defs>
<linearGradient id="paint0_linear_410_31" x1="5.5" y1="1" x2="5.5" y2="12" gradientUnits="userSpaceOnUse">
<stop stop-color="#65625D"/>
<stop offset="1" stop-color="#484744"/>
</linearGradient>
<linearGradient id="paint1_linear_410_31" x1="11" y1="8" x2="11" y2="18" gradientUnits="userSpaceOnUse">
<stop stop-color="#65625D"/>
<stop offset="1" stop-color="#484744"/>
</linearGradient>
</defs>
</svg>
