<svg width="20" height="20" viewBox="0 0 20 20" fill="none" xmlns="http://www.w3.org/2000/svg">
<path d="M5.00021 5.5C5.00021 4.96959 5.2111 4.46101 5.58614 4.08594C5.9612 3.71088 6.4698 3.50002 7.00021 3.5C7.35937 3.5 7.7084 3.59705 8.0129 3.77588C8.0634 3.32794 8.26431 2.90779 8.58614 2.58594C8.9612 2.21088 9.4698 2.00002 10.0002 2C10.5306 2 11.0392 2.21089 11.4143 2.58594C11.7361 2.90778 11.9365 3.32795 11.987 3.77588C12.2916 3.59688 12.6409 3.50001 13.0002 3.5C13.5306 3.5 14.0392 3.71089 14.4143 4.08594C14.7361 4.40778 14.9365 4.82795 14.987 5.27588C15.2916 5.09688 15.6409 5.00001 16.0002 5C16.5306 5 17.0392 5.21089 17.4143 5.58594C17.7893 5.96101 18.0002 6.46957 18.0002 7V11.5C18.0002 13.2239 17.3154 14.8772 16.0964 16.0962C14.8774 17.3152 13.2241 18 11.5002 18H10.0002C7.76585 18 6.36493 17.3009 5.15548 16.0996L5.15402 16.0986L2.45431 13.3984C2.44831 13.3924 2.44242 13.3862 2.43673 13.3799C2.09271 12.9988 1.90806 12.5 1.92159 11.9868C1.93518 11.4737 2.14586 10.9854 2.50948 10.623C2.8731 10.2607 3.36204 10.0518 3.87521 10.04C4.27579 10.0309 4.66711 10.1429 5.00021 10.3564V5.5Z" fill="url(#paint0_linear_410_12)"/>
<path d="M4.99923 5.5C4.99923 4.96959 5.21012 4.46101 5.58517 4.08594C5.96022 3.71088 6.46882 3.50002 6.99923 3.5C7.3584 3.5 7.70742 3.59705 8.01193 3.77588C8.06243 3.32794 8.26333 2.90779 8.58517 2.58594C8.96022 2.21088 9.46883 2.00002 9.99923 2C10.5296 2 11.0382 2.21089 11.4133 2.58594C11.7351 2.90778 11.9355 3.32795 11.986 3.77588C12.2906 3.59688 12.6399 3.50001 12.9992 3.5C13.5296 3.5 14.0382 3.71089 14.4133 4.08594C14.7351 4.40778 14.9355 4.82795 14.986 5.27588C15.2906 5.09688 15.6399 5.00001 15.9992 5C16.5296 5 17.0382 5.21089 17.4133 5.58594C17.7884 5.96101 17.9992 6.46957 17.9992 7V11.5C17.9992 13.2239 17.3144 14.8772 16.0954 16.0962C14.8764 17.3152 13.2231 18 11.4992 18H9.99923C7.76487 18 6.36396 17.3009 5.1545 16.0996L5.15304 16.0986L2.45333 13.3984C2.44733 13.3924 2.44144 13.3862 2.43575 13.3799C2.09174 12.9988 1.90708 12.5 1.92062 11.9868C1.9342 11.4737 2.14488 10.9854 2.50851 10.623C2.87212 10.2607 3.36107 10.0518 3.87423 10.04C4.27481 10.0309 4.66613 10.1429 4.99923 10.3564V5.5ZM7.99923 8.875V5.5C7.99923 5.23478 7.8938 4.98051 7.70626 4.79297C7.51873 4.60546 7.26443 4.5 6.99923 4.5C6.73404 4.50002 6.47972 4.60545 6.2922 4.79297C6.10469 4.9805 5.99923 5.2348 5.99923 5.5V11.293L6.60275 11.8965C6.79801 12.0917 6.79801 12.4083 6.60275 12.6035C6.40748 12.7987 6.09096 12.7988 5.89571 12.6035L4.58712 11.2949C4.39793 11.1255 4.15126 11.0342 3.89718 11.04C3.64059 11.0459 3.39588 11.1504 3.21407 11.3315C3.03239 11.5127 2.92743 11.7567 2.92062 12.0132C2.91391 12.2675 3.00447 12.5147 3.17355 12.7046L5.85909 15.3901C6.88461 16.4088 8.03368 17 9.99923 17H11.4992C12.9579 17 14.3569 16.4206 15.3884 15.3892C16.4198 14.3577 16.9992 12.9587 16.9992 11.5V7C16.9992 6.73478 16.8938 6.4805 16.7063 6.29297C16.5187 6.10546 16.2644 6 15.9992 6C15.734 6.00002 15.4797 6.10545 15.2922 6.29297C15.1047 6.4805 14.9992 6.7348 14.9992 7V9.25C14.9992 9.52614 14.7754 9.75 14.4992 9.75C14.2231 9.74996 13.9992 9.52612 13.9992 9.25V5.5C13.9992 5.23478 13.8938 4.9805 13.7063 4.79297C13.5187 4.60546 13.2644 4.5 12.9992 4.5C12.734 4.50002 12.4797 4.60545 12.2922 4.79297C12.1047 4.9805 11.9992 5.2348 11.9992 5.5V8.5C11.9992 8.77614 11.7754 9 11.4992 9C11.2231 8.99996 10.9992 8.77612 10.9992 8.5V4C10.9992 3.73478 10.8938 3.4805 10.7063 3.29297C10.5187 3.10546 10.2644 3 9.99923 3C9.73404 3.00002 9.47972 3.10545 9.2922 3.29297C9.10469 3.4805 8.99923 3.7348 8.99923 4V8.875C8.99923 9.15114 8.77537 9.375 8.49923 9.375C8.22312 9.37496 7.99923 9.15112 7.99923 8.875Z" fill="#C4BEBB"/>
<defs>
<linearGradient id="paint0_linear_410_12" x1="9.96055" y1="2" x2="9.96055" y2="18" gradientUnits="userSpaceOnUse">
<stop stop-color="#65625D"/>
<stop offset="1" stop-color="#484744"/>
</linearGradient>
</defs>
</svg>
